<?xml version="1.0" encoding="UTF-8" standalone="no"?><!DOCTYPE svg PUBLIC "-//W3C//DTD SVG 1.1//EN" "http://www.w3.org/Graphics/SVG/1.1/DTD/svg11.dtd"><svg width="100%" height="100%" viewBox="0 0 40 39" version="1.1" xmlns="http://www.w3.org/2000/svg" xmlns:xlink="http://www.w3.org/1999/xlink" xml:space="preserve" xmlns:serif="http://www.serif.com/" style="fill-rule:evenodd;clip-rule:evenodd;stroke-linejoin:round;stroke-miterlimit:2;"><path id="XMLID_444_" d="M36.293,0.251l-32.735,-0c-0.968,-0 -1.753,0.785 -1.753,1.753l-0,35.068c-0,0.969 0.785,1.754 1.753,1.754l25.721,-0c0.968,-0 1.753,-0.785 1.753,-1.754l0,-5.26l5.261,0c0.968,0 1.753,-0.785 1.753,-1.753l0,-28.055c0,-0.968 -0.785,-1.753 -1.753,-1.753Zm-5.261,12.858l3.507,0l0,5.845l-3.507,-0l0,-5.845Zm3.507,-3.507l-3.507,0l0,-5.845l3.507,0l0,5.845Zm-7.013,25.717l-22.215,-0l0,-31.562l22.214,0l0,31.562l0.001,-0Zm7.013,-7.014l-3.507,0l0,-5.844l3.507,-0l0,5.844Z" style="fill:#fff;fill-rule:nonzero;"/></svg>